<?xml version="1.0" encoding="utf-8"?>
<!-- Generator: Adobe Illustrator 26.0.1, SVG Export Plug-In . SVG Version: 6.00 Build 0)  -->
<svg version="1.1" id="Layer_1" xmlns="http://www.w3.org/2000/svg" xmlns:xlink="http://www.w3.org/1999/xlink" x="0px" y="0px"
	 viewBox="0 0 272.73 100" style="enable-background:new 0 0 272.73 100;" xml:space="preserve">
<style type="text/css">
	.st0{fill:#1F2328;}
</style>
<g>
	<g>
		<g>
			<polygon points="178.53,56.91 180.72,56.91 180.72,44 164.67,44 164.67,46.19 178.53,46.19 			"/>
		</g>
		<g>
			<polygon points="249.33,75.26 249.33,60.74 247.13,60.74 247.13,75.26 180.72,75.26 180.72,67.09 180.72,64.9 178.53,64.9 
				172.18,64.9 172.18,51.94 169.98,51.94 169.98,64.9 165.3,64.9 165.3,64.9 155.03,64.9 155.03,54.62 152.83,54.62 152.83,98.44 
				155.03,98.44 155.03,67.09 160.91,67.09 165.3,67.09 178.53,67.09 178.53,77.45 236.77,77.45 259.78,77.45 265.79,77.45 
				265.79,75.26 			"/>
		</g>
		<g>
			<polygon points="206.02,85.92 221.4,85.92 221.4,98.44 223.6,98.44 223.6,83.72 206.02,83.72 			"/>
		</g>
		<g>
			<polygon points="189.73,46.19 202.19,46.19 202.19,44 189.73,44 189.73,32.96 187.53,32.96 187.53,64.41 189.73,64.41 			"/>
		</g>
		<g>
			<polygon points="200,58.17 212.41,58.17 201.59,68.98 203.19,70.42 214.81,58.72 226.43,70.42 228.03,68.98 217.21,58.17 
				229.62,58.17 229.62,55.97 215.91,55.97 215.91,44 213.71,44 213.71,55.97 200,55.97 			"/>
		</g>
		<g>
			<polygon points="248.27,50.59 259.73,61.96 261.33,60.53 248.27,47.55 235.21,60.53 236.8,61.96 			"/>
		</g>
		<g>
			<path d="M37.77,59.55c-3.53,0-6.41,2.91-6.41,6.5c0,3.6,2.82,6.41,6.41,6.41c3.58,0,6.5-2.88,6.5-6.41
				C44.27,62.47,41.36,59.55,37.77,59.55z M42.17,66.05c0,2.49-1.84,4.3-4.39,4.3c-2.53,0-4.3-1.77-4.3-4.3
				c0-2.54,1.81-4.39,4.3-4.39C40.28,61.67,42.17,63.55,42.17,66.05z"/>
		</g>
		<g>
			<polygon points="33.65,46.19 41.81,46.19 41.81,56.64 44.01,56.64 44.01,32.96 41.81,32.96 41.81,44 33.65,44 33.65,36.49 
				31.46,36.49 31.46,56.64 33.65,56.64 			"/>
		</g>
		<g>
			<polygon points="6.93,53.21 8.53,54.64 16.7,46.56 24.89,54.66 26.36,53.19 16.7,43.53 			"/>
		</g>
		<g>
			<polygon points="91.43,44 78.97,44 78.97,32.96 76.77,32.96 76.77,56.64 78.97,56.64 78.97,46.19 91.43,46.19 			"/>
		</g>
		<g>
			<path d="M67.76,64.89H62.8v-7.88c3.06-0.49,5.4-3.2,5.4-6.35c0-1.72-0.64-3.27-1.84-4.47h3.61V44H62.8V33.72h-2.2V44H50.15v2.2
				h6.87c-1.1,1.21-1.73,2.8-1.73,4.47c0,3.22,2.25,5.87,5.31,6.36v7.88H50.15v2.2h17.62h2.2h6.81v8.16h-9v12.56h11.2v-2.2h-9v-8.16
				h9V64.9h-9L67.76,64.89L67.76,64.89z M66.09,50.67c0,2.49-1.84,4.3-4.39,4.3c-2.53,0-4.3-1.77-4.3-4.3c0-2.54,1.81-4.39,4.3-4.39
				C64.2,46.28,66.09,48.17,66.09,50.67z"/>
		</g>
		<g>
			<polygon points="108.5,85.8 106.3,85.8 106.3,98.44 118.86,98.44 118.86,96.25 108.5,96.25 			"/>
		</g>
		<g>
			<path d="M138.61,77.92c3.06-0.49,5.4-3.2,5.4-6.36c0-1.72-0.64-3.27-1.84-4.47h3.43v-2.2h-6.99V54.62h-2.2v10.28h-10.45v2.2h6.87
				c-1.1,1.21-1.73,2.8-1.73,4.47c0,3.22,2.25,5.87,5.31,6.36v7.87h-10.36v2.2h23.01v-2.2h-10.45L138.61,77.92L138.61,77.92z
				 M133.21,71.57c0-2.54,1.81-4.39,4.3-4.39c2.5,0,4.39,1.88,4.39,4.39c0,2.49-1.84,4.3-4.39,4.3
				C134.98,75.87,133.21,74.1,133.21,71.57z"/>
		</g>
		<g>
			<path d="M116.66,64.89h-15.05V54.62h-2.2v10.28h-7.99V54.62h-2.2v22.84h12.39V67.09h15.05v8.17h-9.88v0.49v0.49v0.24v0.49v0.49
				h9.87v10.36h2.2V54.62h-2.2L116.66,64.89L116.66,64.89z M91.43,75.26v-8.16h7.99v8.16H91.43z"/>
		</g>
	</g>
	<g>
		<polygon class="st0" points="30.22,1.56 24.73,1.56 18.99,14.31 13.24,1.56 7.75,1.56 16.33,20.1 21.64,20.1 		"/>
		<g>
			<polygon class="st0" points="30.38,20.1 35.87,20.1 41.61,7.35 47.36,20.1 52.85,20.1 44.27,1.56 38.96,1.56 			"/>
			<polygon class="st0" points="87.97,1.56 82.48,1.56 76.74,14.31 70.99,1.56 65.5,1.56 74.08,20.1 79.39,20.1 			"/>
			<polygon class="st0" points="30.22,1.56 24.73,1.56 18.99,14.31 13.24,1.56 7.75,1.56 16.33,20.1 21.64,20.1 			"/>
			<rect x="56.51" y="1.56" class="st0" width="5.34" height="18.55"/>
		</g>
	</g>
</g>
</svg>
